<svg xmlns="http://www.w3.org/2000/svg" viewBox="0 0 1000 280" width="1000" height="280">
  <defs>
    <linearGradient id="bgGrad" x1="0%" y1="0%" x2="100%" y2="100%">
      <stop offset="0%" stop-color="#050814"/>
      <stop offset="50%" stop-color="#0A0E1A"/>
      <stop offset="100%" stop-color="#0D1117"/>
    </linearGradient>
    <linearGradient id="cyanGrad" x1="0%" y1="0%" x2="100%" y2="100%">
      <stop offset="0%" stop-color="#00FFFF"/>
      <stop offset="100%" stop-color="#0891B2"/>
    </linearGradient>
    <linearGradient id="purpleGrad" x1="0%" y1="0%" x2="100%" y2="100%">
      <stop offset="0%" stop-color="#A855F7"/>
      <stop offset="100%" stop-color="#6B21A8"/>
    </linearGradient>
    <filter id="glow" x="-50%" y="-50%" width="200%" height="200%">
      <feGaussianBlur stdDeviation="3" result="blur"/>
      <feMerge><feMergeNode in="blur"/><feMergeNode in="SourceGraphic"/></feMerge>
    </filter>
    <filter id="glowStrong" x="-100%" y="-100%" width="300%" height="300%">
      <feGaussianBlur stdDeviation="6" result="blur"/>
      <feMerge><feMergeNode in="blur"/><feMergeNode in="SourceGraphic"/></feMerge>
    </filter>
    <pattern id="grid" width="40" height="40" patternUnits="userSpaceOnUse">
      <path d="M 40 0 L 0 0 0 40" fill="none" stroke="#1E293B" stroke-width="0.5" opacity="0.25"/>
    </pattern>
  </defs>
  <rect width="1000" height="280" fill="url(#bgGrad)"/>
  <rect width="1000" height="280" fill="url(#grid)"/>
  <rect x="0" y="0" width="1000" height="3" fill="url(#cyanGrad)" opacity="0.8"/>

  <!-- Left side: Book icon abstraction -->
  <g transform="translate(40, 40)">
    <rect x="0" y="0" width="60" height="80" rx="4" fill="#0F172A" stroke="#00FFFF" stroke-width="1.5" opacity="0.6"/>
    <rect x="8" y="10" width="44" height="3" rx="1.5" fill="#00FFFF" opacity="0.8"/>
    <rect x="8" y="20" width="35" height="3" rx="1.5" fill="#A855F7" opacity="0.6"/>
    <rect x="8" y="30" width="40" height="3" rx="1.5" fill="#C7D2FE" opacity="0.4"/>
    <rect x="8" y="40" width="28" height="3" rx="1.5" fill="#00FFFF" opacity="0.5"/>
    <rect x="8" y="50" width="38" height="3" rx="1.5" fill="#A855F7" opacity="0.4"/>
    <rect x="8" y="60" width="20" height="3" rx="1.5" fill="#C7D2FE" opacity="0.3"/>
  </g>

  <!-- Second book -->
  <g transform="translate(115, 55)">
    <rect x="0" y="0" width="50" height="65" rx="4" fill="#0F172A" stroke="#A855F7" stroke-width="1.5" opacity="0.5"/>
    <rect x="7" y="10" width="36" height="3" rx="1.5" fill="#A855F7" opacity="0.7"/>
    <rect x="7" y="20" width="28" height="3" rx="1.5" fill="#00FFFF" opacity="0.5"/>
    <rect x="7" y="30" width="32" height="3" rx="1.5" fill="#C7D2FE" opacity="0.4"/>
    <rect x="7" y="40" width="22" height="3" rx="1.5" fill="#A855F7" opacity="0.4"/>
    <rect x="7" y="50" width="16" height="3" rx="1.5" fill="#00FFFF" opacity="0.3"/>
  </g>

  <!-- Stars floating between books -->
  <text x="70" y="70" font-family="sans-serif" font-size="14" fill="#F59E0B" opacity="0.6">*</text>
  <text x="96" y="90" font-family="sans-serif" font-size="10" fill="#F59E0B" opacity="0.4">*</text>
  <text x="60" y="110" font-family="sans-serif" font-size="8" fill="#F59E0B" opacity="0.3">*</text>

  <!-- Right side: Title & info -->
  <text x="210" y="75" font-family="'JetBrains Mono', 'Courier New', monospace" font-size="28" font-weight="700" fill="#00FFFF" filter="url(#glowStrong)">
    ~/.bookrecommender
  </text>
  <text x="210" y="105" font-family="'Inter', 'Segoe UI', sans-serif" font-size="16" fill="#C7D2FE" letter-spacing="0.5">
    Book Recommendation System  --  3 ML Engines
  </text>

  <!-- Stats row -->
  <g transform="translate(210, 125)">
    <rect x="0" y="0" width="100" height="40" rx="6" fill="#161B22" stroke="#1E293B" stroke-width="1"/>
    <text x="12" y="16" font-family="'JetBrains Mono', monospace" font-size="14" font-weight="700" fill="#00FFFF">10K</text>
    <text x="12" y="30" font-family="'Inter', sans-serif" font-size="9" fill="#9CA3AF">Books</text>

    <rect x="110" y="0" width="100" height="40" rx="6" fill="#161B22" stroke="#1E293B" stroke-width="1"/>
    <text x="122" y="16" font-family="'JetBrains Mono', monospace" font-size="14" font-weight="700" fill="#A855F7">6M</text>
    <text x="122" y="30" font-family="'Inter', sans-serif" font-size="9" fill="#9CA3AF">Ratings</text>

    <rect x="220" y="0" width="100" height="40" rx="6" fill="#161B22" stroke="#1E293B" stroke-width="1"/>
    <text x="232" y="16" font-family="'JetBrains Mono', monospace" font-size="14" font-weight="700" fill="#00FFFF">3</text>
    <text x="232" y="30" font-family="'Inter', sans-serif" font-size="9" fill="#9CA3AF">Engines</text>
  </g>

  <!-- Bottom section: Tech tags -->
  <g transform="translate(210, 180)">
    <rect x="0" y="0" width="90" height="22" rx="11" fill="#00FFFF12" stroke="#00FFFF" stroke-width="1"/>
    <text x="12" y="15" font-family="'JetBrains Mono', monospace" font-size="9" fill="#00FFFF">Python</text>

    <rect x="100" y="0" width="90" height="22" rx="11" fill="#A855F712" stroke="#A855F7" stroke-width="1"/>
    <text x="112" y="15" font-family="'JetBrains Mono', monospace" font-size="9" fill="#A855F7">scikit-learn</text>

    <rect x="200" y="0" width="70" height="22" rx="11" fill="#00FFFF12" stroke="#00FFFF" stroke-width="1"/>
    <text x="212" y="15" font-family="'JetBrains Mono', monospace" font-size="9" fill="#00FFFF">Streamlit</text>

    <rect x="280" y="0" width="70" height="22" rx="11" fill="#A855F712" stroke="#A855F7" stroke-width="1"/>
    <text x="292" y="15" font-family="'JetBrains Mono', monospace" font-size="9" fill="#A855F7">pandas</text>

    <rect x="360" y="0" width="90" height="22" rx="11" fill="#00FFFF12" stroke="#00FFFF" stroke-width="1"/>
    <text x="372" y="15" font-family="'JetBrains Mono', monospace" font-size="9" fill="#00FFFF">Docker</text>
  </g>

  <!-- Bottom terminal bar -->
  <rect x="0" y="250" width="1000" height="30" fill="#0F172A" opacity="0.9"/>
  <rect x="0" y="250" width="1000" height="1" fill="#1E293B"/>
  <text x="15" y="269" font-family="'JetBrains Mono', monospace" font-size="12" fill="#6B7280">adityabhure@system:~$</text>
  <text x="195" y="269" font-family="'JetBrains Mono', monospace" font-size="12" fill="#00FFFF">streamlit run app.py</text>
  <text x="410" y="269" font-family="'JetBrains Mono', monospace" font-size="12" fill="#10B981">*</text>
  <text x="422" y="269" font-family="'JetBrains Mono', monospace" font-size="12" fill="#6B7280"> Running on http://localhost:8501</text>

  <rect x="640" y="255" width="8" height="18" rx="1" fill="#00FFFF" opacity="0.8">
    <animate attributeName="opacity" values="0.8;0;0.8" dur="1.2s" repeatCount="indefinite"/>
  </rect>
</svg>